<svg xmlns="http://www.w3.org/2000/svg" width="147" height="147" viewBox="0 0 147 147"><title>Hubblesite-WhiteIcons-Exoplanet-Final</title><circle cx="73.5" cy="73.5" r="56.17" fill="none" stroke="#fff" stroke-miterlimit="10"/><circle cx="73.5" cy="73.5" r="55.17" fill="none" stroke="#fff" stroke-miterlimit="10"/><path d="M73.5,147A73.5,73.5,0,1,1,147,73.5,73.58,73.58,0,0,1,73.5,147Zm0-145A71.51,71.51,0,1,0,145,73.5,71.59,71.59,0,0,0,73.5,2Z" fill="#fff"/><path d="M61.63,73.26A3.54,3.54,0,0,1,58.12,70,3.5,3.5,0,0,1,59,67.46a3.45,3.45,0,0,1,2.4-1.22,3.52,3.52,0,1,1,.54,7Zm0-5.53h-.15a2,2,0,0,0-1.16,3.54,2,2,0,0,0,1.46.48,2,2,0,0,0-.15-4Z" fill="#fff"/><path d="M68.87,76.77a2.06,2.06,0,0,1-1.33-.49,2.07,2.07,0,0,1-.22-2.89,2.07,2.07,0,0,1,1.4-.71,2.05,2.05,0,0,1,2.2,1.89h0a2,2,0,0,1-.49,1.49,2.07,2.07,0,0,1-1.4.71Zm0-2.59h0a.56.56,0,0,0-.38.19.57.57,0,0,0-.13.4.56.56,0,0,0,.19.37.5.5,0,0,0,.4.13.52.52,0,0,0,.37-.19.53.53,0,0,0,.13-.4h0a.5.5,0,0,0-.19-.37A.51.51,0,0,0,68.88,74.18Z" fill="#fff"/><path d="M93.85,81a3.12,3.12,0,0,1-3.11-2.89A3.12,3.12,0,0,1,97,77.68h0A3.08,3.08,0,0,1,96.23,80,3.11,3.11,0,0,1,94.09,81Zm0-4.75h-.13a1.65,1.65,0,0,0-1.11.57,1.64,1.64,0,0,0,.18,2.29,1.63,1.63,0,0,0,1.18.39,1.64,1.64,0,0,0,1.5-1.75h0A1.63,1.63,0,0,0,93.86,76.29Z" fill="#fff"/><path d="M65.76,63.69c-4-.92-7.36.23-10.18,3.52a32.27,32.27,0,0,1-7.35,6.19c0,.32,0,.63.05.95a26,26,0,0,0,.39,2.94c2.15-.89,11.28-4.38,15.78-.9,4.32,3.35,6.84,1.91,10.92-.93.8-.55,1.93-1.27,3.23-2.11C84,69.88,93,64.13,95.65,59.33A25.68,25.68,0,0,0,90.34,53a26.33,26.33,0,0,0-3.26-2.38C79.91,60.7,70.09,64.69,65.76,63.69Z" fill="none"/><path d="M61.88,82.52c-1.57-3.24-8.32-1.22-11.53.12a26.78,26.78,0,0,0,1.42,2.77h0a10.8,10.8,0,0,1,1.27,0l.14,0a9.91,9.91,0,0,1,1.07.17l.21,0a9.8,9.8,0,0,1,2.26.85l.17.09a8.19,8.19,0,0,1,1,.64h0a8,8,0,0,1,.64.54C61.6,86,62.72,84.26,61.88,82.52Z" fill="none"/><path d="M79.41,74.62c-1.29.82-2.41,1.54-3.18,2.08-2.6,1.8-4.79,3.13-7.19,3.13a9,9,0,0,1-5.51-2.25c-4-3.11-13.18.63-14.52,1.2.22.84.48,1.66.78,2.47,2.58-1.06,11.13-4.15,13.44.62.84,1.73.85,4.32-3.57,7l0,0,.18.22a9.77,9.77,0,0,1,.68,1,9.17,9.17,0,0,1,.52,1c.05.1.08.2.12.3a8.09,8.09,0,0,1,.28.83l.09.3a9.17,9.17,0,0,1,.27,1.87c2.37-1.33,5.28-5.11,6.94-8.39,1.06-2.1,4.19-3.57,7.81-5.28s7.54-3.54,10.06-6.28c4.33-4.7,10.28-3.2,12.58-2.36,0-.58,0-1.15-.06-1.72a25.52,25.52,0,0,0-2.68-9.62C93.19,65.78,84.66,71.25,79.41,74.62Z" fill="none"/><path d="M66.94,53c2.9-1.42,5.43-4.48,6.66-6.13q-.91,0-1.83.06a25.35,25.35,0,0,0-16.32,7.64C57.54,54.65,63.58,54.66,66.94,53Z" fill="none"/><path d="M87.75,75.55c-2.72,3-6.86,4.9-10.52,6.62-3.23,1.52-6.28,3-7.11,4.6-1.65,3.25-4.51,7-7.13,8.76a25.48,25.48,0,0,0,8.15,2.24c1-1.52,4.87-6.68,9.18-6.39,5,.31,7.65-3.52,8.35-4.7,1.31-2.24,4.72-4.39,8-3.13a25.11,25.11,0,0,0,2.52-9.8C97.76,73.14,91.92,71,87.75,75.55Z" fill="none"/><path d="M54.44,66.24c3.22-3.76,7-5.07,11.65-4C69.24,63,78.51,60,85.77,49.9a25.32,25.32,0,0,0-10.36-3c-.87,1.29-4,5.56-7.81,7.44-3.07,1.5-7.93,1.74-10.75,1.74-1.26,0-2.12,0-2.22,0a.71.71,0,0,1-.38-.15,25.27,25.27,0,0,0-6,15.72A31,31,0,0,0,54.44,66.24Z" fill="none"/><path d="M90,87.44c-.8,1.37-3.88,5.79-9.73,5.43-3-.17-6,3.22-7.32,5A25.6,25.6,0,0,0,96,84.9C93.53,84.09,90.94,85.77,90,87.44Z" fill="none"/><path d="M60.33,94.14a9,9,0,0,0-.18-1l0-.12a9.06,9.06,0,0,0-.29-.88,1.86,1.86,0,0,0-.1-.25,7.53,7.53,0,0,0-.46-.95,7.83,7.83,0,0,0-.65-.94c0-.07-.11-.12-.16-.18-.2-.23-.39-.45-.61-.66l-.21-.18c-.21-.18-.42-.36-.65-.53l-.27-.17c-.22-.14-.44-.28-.67-.4l-.33-.16c-.22-.1-.44-.2-.67-.28l-.38-.13a7,7,0,0,0-.69-.18L53.6,87q-.37-.06-.75-.09l-.35,0a6.88,6.88,0,0,0-.9,0,1.51,1.51,0,0,0-.3,0h-.11a8.1,8.1,0,1,0,9.17,8.55v-.2a6.26,6.26,0,0,0,0-1C60.34,94.28,60.33,94.21,60.33,94.14Z" fill="none"/><path d="M100.66,70.33a27,27,0,1,0-52,12.13s0,.07,0,.11l0,.05a26,26,0,0,0,1.46,3,9.21,9.21,0,0,0-2.75,1.08,9.6,9.6,0,0,0,2.42,17.57,9.29,9.29,0,0,0,2.44.32,9.6,9.6,0,0,0,9.45-8,27,27,0,0,0,9.58,2.7.57.57,0,0,0,.18,0h0c.72.06,1.45.1,2.18.1s1.38,0,2.08-.08a27,27,0,0,0,24.87-29Zm-4,13.22c-3.29-1.26-6.7.89-8,3.13-.7,1.18-3.36,5-8.35,4.7-4.31-.29-8.15,4.87-9.18,6.39A25.48,25.48,0,0,1,63,95.53c2.62-1.71,5.48-5.51,7.13-8.76.83-1.65,3.88-3.08,7.11-4.6,3.66-1.72,7.8-3.67,10.52-6.62,4.17-4.53,10-2.41,11.45-1.8A25.11,25.11,0,0,1,96.68,83.55Zm2.55-11.38c-2.3-.84-8.25-2.34-12.58,2.36-2.52,2.74-6.53,4.62-10.06,6.28S69.84,84,68.78,86.09c-1.66,3.28-4.57,7.06-6.94,8.39a9.17,9.17,0,0,0-.27-1.87l-.09-.3a8.09,8.09,0,0,0-.28-.83c0-.1-.07-.2-.12-.3a9.17,9.17,0,0,0-.52-1,9.77,9.77,0,0,0-.68-1l-.18-.22,0,0c4.42-2.69,4.41-5.28,3.57-7-2.31-4.77-10.86-1.68-13.44-.62-.3-.81-.56-1.63-.78-2.47,1.34-.57,10.52-4.31,14.52-1.2A9,9,0,0,0,69,79.83c2.4,0,4.59-1.33,7.19-3.13.77-.54,1.89-1.26,3.18-2.08,5.25-3.37,13.78-8.84,17.08-13.79a25.52,25.52,0,0,1,2.68,9.62C99.21,71,99.23,71.59,99.23,72.17ZM58.57,87.78a8,8,0,0,0-.64-.54h0a8.19,8.19,0,0,0-1-.64l-.17-.09a9.8,9.8,0,0,0-2.26-.85l-.21,0a9.91,9.91,0,0,0-1.07-.17l-.14,0a10.8,10.8,0,0,0-1.27,0h0a26.78,26.78,0,0,1-1.42-2.77c3.21-1.34,10-3.36,11.53-.12C62.72,84.26,61.6,86,58.57,87.78ZM95.65,59.33C93,64.13,84,69.88,78.6,73.35c-1.3.84-2.43,1.56-3.23,2.11-4.08,2.84-6.6,4.28-10.92.93-4.5-3.48-13.63,0-15.78.9a26,26,0,0,1-.39-2.94c0-.32,0-.63-.05-.95a32.27,32.27,0,0,0,7.35-6.19c2.82-3.29,6.15-4.44,10.18-3.52,4.33,1,14.15-3,21.32-13A26.33,26.33,0,0,1,90.34,53,25.68,25.68,0,0,1,95.65,59.33ZM71.77,47q.92-.06,1.83-.06c-1.23,1.65-3.76,4.71-6.66,6.13-3.36,1.64-9.4,1.63-11.49,1.57A25.35,25.35,0,0,1,71.77,47Zm-17.52,9a.71.71,0,0,0,.38.15c.1,0,1,0,2.22,0,2.82,0,7.68-.24,10.75-1.74,3.83-1.88,6.94-6.15,7.81-7.44a25.32,25.32,0,0,1,10.36,3C78.51,60,69.24,63,66.09,62.23c-4.62-1.06-8.43.25-11.65,4a31,31,0,0,1-6.22,5.39A25.27,25.27,0,0,1,54.25,55.91Zm6.11,39.58v0A8.11,8.11,0,1,1,51.19,87h.11a1.51,1.51,0,0,1,.3,0,6.88,6.88,0,0,1,.9,0l.35,0q.38,0,.75.09l.38.07a7,7,0,0,1,.69.18l.38.13c.23.08.45.18.67.28l.33.16c.23.12.45.26.67.4l.27.17c.23.17.44.35.65.53l.21.18c.22.21.41.43.61.66,0,.06.11.11.16.18a7.83,7.83,0,0,1,.65.94,7.53,7.53,0,0,1,.46.95,1.86,1.86,0,0,1,.1.25,9.06,9.06,0,0,1,.29.88l0,.12a9,9,0,0,1,.18,1c0,.07,0,.14,0,.21a6.26,6.26,0,0,1,0,1ZM93.09,89a25.29,25.29,0,0,1-20.18,8.88c1.37-1.8,4.35-5.19,7.32-5,5.85.36,8.93-4.06,9.73-5.43,1-1.67,3.57-3.35,6-2.54A25.62,25.62,0,0,1,93.09,89Z" fill="#fff"/><path d="M40.39,48.5H39.2V47.32a1.19,1.19,0,1,0-2.37,0V48.5H35.64a1.19,1.19,0,1,0,0,2.38h1.19v1.19a1.19,1.19,0,0,0,2.37,0V50.88h1.19a1.19,1.19,0,0,0,0-2.38Z" fill="#fff"/><path d="M113.34,84.38h-1.19V83.19a1.19,1.19,0,1,0-2.37,0v1.19h-1.19a1.19,1.19,0,1,0,0,2.37h1.19v1.19a1.19,1.19,0,1,0,2.37,0V86.75h1.19a1.19,1.19,0,1,0,0-2.37Z" fill="#fff"/><path d="M88.15,29.48a1.19,1.19,0,1,0,1.18,1.18A1.18,1.18,0,0,0,88.15,29.48Z" fill="#fff"/><path d="M120.46,86.75a1.19,1.19,0,1,0,1.19,1.19A1.18,1.18,0,0,0,120.46,86.75Z" fill="#fff"/><path d="M119.28,77.25a1.19,1.19,0,1,0,1.18,1.19A1.19,1.19,0,0,0,119.28,77.25Z" fill="#fff"/><path d="M41.21,38.35a1.19,1.19,0,1,0,1.19,1.19A1.19,1.19,0,0,0,41.21,38.35Z" fill="#fff"/><path d="M29.1,52.75a1.19,1.19,0,1,0,1.19,1.19A1.19,1.19,0,0,0,29.1,52.75Z" fill="#fff"/><circle cx="82.1" cy="25.91" r="2.37" fill="#fff"/><path d="M59.94,120.57a1.19,1.19,0,1,0,1.19,1.19A1.19,1.19,0,0,0,59.94,120.57Z" fill="#fff"/><path d="M63,112.26a1.19,1.19,0,1,0,1.19,1.19A1.18,1.18,0,0,0,63,112.26Z" fill="#fff"/><path d="M84.48,117a1.19,1.19,0,1,0,1.19,1.19A1.19,1.19,0,0,0,84.48,117Z" fill="#fff"/><circle cx="71.96" cy="115.82" r="1.88" fill="#fff"/><path d="M103.28,60a4.61,4.61,0,0,1-1.1-.14,4.3,4.3,0,1,1,4.8-6.32h0a4.3,4.3,0,0,1-3.7,6.46Zm0-7.09a2.77,2.77,0,0,0-1.41.38,2.8,2.8,0,1,0,3.82,1h0A2.8,2.8,0,0,0,103.27,52.94Z" fill="#fff"/></svg>