<svg xmlns="http://www.w3.org/2000/svg" width="147" height="147" viewBox="0 0 147 147"><title>Hubblesite-WhiteIcons-KeyConcepts-Final</title><circle cx="73.5" cy="73.5" r="56.17" fill="none" stroke="#fff" stroke-miterlimit="10"/><circle cx="73.5" cy="73.5" r="55.17" fill="none" stroke="#fff" stroke-miterlimit="10"/><path d="M73.5,147A73.5,73.5,0,1,1,147,73.5,73.58,73.58,0,0,1,73.5,147Zm0-145A71.51,71.51,0,1,0,145,73.5,71.59,71.59,0,0,0,73.5,2Z" fill="#fff"/><circle cx="42.91" cy="44.87" r="1.25" fill="#fff"/><ellipse cx="56.96" cy="29.4" rx="1.22" ry="1.25" fill="#fff"/><circle cx="45.05" cy="35.28" r="3.4" fill="#fff"/><ellipse cx="55.74" cy="42.21" rx="1.22" ry="1.25" fill="#fff"/><circle cx="98.38" cy="105.79" r="1.3" fill="#fff"/><ellipse cx="88.3" cy="113.89" rx="1.22" ry="1.25" transform="translate(-34.99 39.27) rotate(-21.03)" fill="#fff"/><circle cx="99.5" cy="114.48" r="3.4" fill="#fff"/><path d="M35.83,96.19l62,.37L67.17,42.65ZM78,66.4a.74.74,0,0,1-.73.59h-.16l-8.7-1.81,10.93,3.56a.75.75,0,0,1,.48,1,.74.74,0,0,1-.71.52.59.59,0,0,1-.23,0L67,66.28l14.74,6.85a.75.75,0,0,1,.37,1,.77.77,0,0,1-.68.44.88.88,0,0,1-.32-.07L58.35,63.94A.75.75,0,0,1,58,63a.39.39,0,0,1,.08-.1.69.69,0,0,1,0-.25.77.77,0,0,1,.37-.44.75.75,0,0,1,.82-.42l18.1,3.77A.74.74,0,0,1,78,66.4Z" fill="none"/><path d="M101.58,89.42a.75.75,0,1,0-1.3.74l2.35,4.14-3.25,1.9L68.2,41.42l3.19-1.87L86.54,66.16a.76.76,0,0,0,.66.38.86.86,0,0,0,.37-.1.75.75,0,0,0,.28-1L72.32,38.15a.74.74,0,0,0-.46-.35.76.76,0,0,0-.57.07l-4.43,2.6a.75.75,0,0,0-.26.21l0,0,0,.05L33.88,96.55a.75.75,0,0,0,0,.75.76.76,0,0,0,.65.38L99,98.07l.23,0c.9-.39,4.76-2.81,4.76-2.81a.75.75,0,0,0,.27-1ZM35.83,96.19,67.17,42.65l30.7,53.91Z" fill="#fff"/><path d="M121.75,80.68,86.43,67.41l-.11,0-.75-.15a.74.74,0,0,0-.89.58.77.77,0,0,0,.58.89l.7.14,35.27,13.25a.58.58,0,0,0,.26,0,.75.75,0,0,0,.26-1.45Z" fill="#fff"/><path d="M58.08,62.6c0,.08-.42,1,.27,1.34L81.06,74.49a.88.88,0,0,0,.32.07.77.77,0,0,0,.68-.44.75.75,0,0,0-.37-1L67,66.28l11.88,3.88a.59.59,0,0,0,.23,0,.74.74,0,0,0,.71-.52.75.75,0,0,0-.48-1L68.36,65.17,77.06,67h.16a.75.75,0,0,0,.15-1.48l-18.1-3.77C58.51,61.56,58.15,62.4,58.08,62.6Z" fill="#fff"/><path d="M50.79,62.39a.76.76,0,0,0,.75-.75.75.75,0,0,0-.74-.75l-19.62-.12h0a.75.75,0,0,0,0,1.5l19.62.12Z" fill="#fff"/><path d="M91.85,77.92a.76.76,0,0,0-1.06.08.75.75,0,0,0,.09,1.06l22,18.83a.74.74,0,0,0,.48.18.75.75,0,0,0,.49-1.32Z" fill="#fff"/><path d="M119.25,89.13,88.8,71.85l-.14-.06-.58-.19a.76.76,0,0,0-.94.48.75.75,0,0,0,.48,1l.5.17L118.5,90.44a.74.74,0,0,0,.37.1.75.75,0,0,0,.38-1.41Z" fill="#fff"/></svg>