<?xml version="1.0" encoding="utf-8"?>
<svg version="1.1" id="Layer_1" xmlns="http://www.w3.org/2000/svg" xmlns:xlink="http://www.w3.org/1999/xlink" x="0px" y="0px"
	 viewBox="0 0 25.8 30.1" style="enable-background:new 0 0 25.8 30.1;" xml:space="preserve">
<style type="text/css">
	.st0{fill:#556CF4;}
	.st1{fill:#FFFFFF;}
</style>
<circle class="st0" cx="12.9" cy="14.2" r="12.6"/>
<path id="email" class="st1" d="M8.4,12.7c0.2,0.1,0.6,0.4,1.3,0.8s1.3,0.8,1.7,1.1c0.1,0.1,0.2,0.1,0.3,0.2
	c0.1,0.1,0.2,0.1,0.3,0.2c0.1,0.1,0.2,0.1,0.3,0.2c0.1,0.1,0.3,0.1,0.4,0.2c0.1,0,0.2,0.1,0.3,0.1l0,0c0.1,0,0.2,0,0.3-0.1
	c0.1-0.1,0.3-0.1,0.4-0.2c0.1-0.1,0.2-0.1,0.3-0.2c0.1-0.1,0.2-0.2,0.4-0.2c0.2-0.1,0.2-0.2,0.3-0.2c0.4-0.3,1.4-0.9,3-1.9
	c0.3-0.2,0.6-0.4,0.8-0.7c0.3-0.2,0.4-0.6,0.4-0.9c0-0.3-0.1-0.5-0.3-0.7c-0.2-0.2-0.5-0.3-0.7-0.3H8.3c-0.3,0-0.6,0.1-0.8,0.3
	c-0.2,0.2-0.3,0.5-0.3,0.8c0,0.3,0.1,0.6,0.4,0.8C7.9,12.4,8.1,12.6,8.4,12.7z M18.1,13.4c-1.4,0.9-2.4,1.6-3.2,2
	c-0.2,0.1-0.4,0.3-0.6,0.4C14.2,15.9,14,16,13.7,16c-0.2,0.1-0.5,0.2-0.7,0.2l0,0c-0.3,0-0.5-0.1-0.7-0.2c-0.3-0.1-0.5-0.2-0.6-0.3
	c-0.2-0.1-0.4-0.2-0.6-0.4c-0.6-0.4-1.6-1-3.2-2c-0.2-0.1-0.4-0.3-0.6-0.5v4.7c0,0.3,0.1,0.5,0.3,0.7c0.2,0.2,0.5,0.3,0.7,0.3h9.4
	c0.3,0,0.5-0.1,0.7-0.3c0.2-0.2,0.3-0.4,0.3-0.7v-4.7C18.6,13.1,18.3,13.2,18.1,13.4L18.1,13.4z"/>
</svg>
