<svg xmlns="http://www.w3.org/2000/svg" width="147" height="147" viewBox="0 0 147 147"><title>Hubblesite-WhiteIcons-SolarSystem-Final</title><circle cx="73.5" cy="73.5" r="56.17" fill="none" stroke="#fff" stroke-miterlimit="10"/><circle cx="73.5" cy="73.5" r="55.17" fill="none" stroke="#fff" stroke-miterlimit="10"/><path d="M73.5,147A73.5,73.5,0,1,1,147,73.5,73.58,73.58,0,0,1,73.5,147Zm0-145A71.51,71.51,0,1,0,145,73.5,71.59,71.59,0,0,0,73.5,2Z" fill="#fff"/><path d="M84.59,73.6a1,1,0,0,1-.13-1.86,1,1,0,0,0-.5-1.9,1,1,0,0,1-.79-1.68A1,1,0,0,0,82,66.56h0a1,1,0,0,1-1.35-1.28A1,1,0,0,0,79,64.21a1,1,0,0,1-1.72-.71,1,1,0,0,0-1.92-.4,1,1,0,0,1-1.86,0,1,1,0,0,0-1.94.32h0a1,1,0,0,1-1.75.64,1,1,0,0,0-1.69,1h0a1,1,0,0,1-1.4,1.23,1,1,0,0,0-1.22,1.54h0a1,1,0,0,1-.86,1.65h0a1,1,0,0,0-.58,1.87,1,1,0,0,1-.21,1.86,1,1,0,0,0,.14,2,1,1,0,0,1,.47,1.81,1,1,0,0,0,.84,1.77,1,1,0,0,1,1.09,1.51,1,1,0,0,0,1.42,1.35,1,1,0,0,1,1.56,1,1,1,0,0,0,1.82.74A1,1,0,0,1,73,83.7a1,1,0,0,0,2,0,1,1,0,0,1,1.84-.31,1,1,0,0,0,1.84-.67,1,1,0,0,1,1.61-.94,1,1,0,0,0,1.48-1.29,1,1,0,0,1,1.15-1.47h0a1,1,0,0,0,.91-1.73,1,1,0,0,1,.55-1.78A1,1,0,0,0,84.59,73.6Zm-10.38,8a8.12,8.12,0,1,1,8.12-8.12A8.13,8.13,0,0,1,74.21,81.61Z" fill="#fff"/><path d="M74.21,65.37a8.12,8.12,0,1,0,8.12,8.12A8.13,8.13,0,0,0,74.21,65.37Z" fill="none"/><path d="M52,76.59a.74.74,0,0,1-.74-.68,22.52,22.52,0,0,1,.14-5.32.75.75,0,1,1,1.48.21,21.19,21.19,0,0,0-.13,5,.75.75,0,0,1-.68.82Z" fill="#fff"/><path d="M74,96.75A23,23,0,0,1,53.6,84.15a.76.76,0,0,1,.34-1,.74.74,0,0,1,1,.33A21.52,21.52,0,0,0,74,95.25a1.47,1.47,0,0,0,.21,0,.75.75,0,0,1,0,1.5Z" fill="#fff"/><path d="M85.74,93.42a.75.75,0,0,1-.4-1.39A21.39,21.39,0,0,0,70,52.87a21.15,21.15,0,0,0-9.18,4.22.75.75,0,1,1-.94-1.17A22.89,22.89,0,1,1,86.13,93.3.69.69,0,0,1,85.74,93.42Z" fill="#fff"/><path d="M74,108.61a34.81,34.81,0,0,1-7.41-.8.75.75,0,0,1,.32-1.46,33.52,33.52,0,0,0,7.15.76h0a.76.76,0,0,1,.75.75A.78.78,0,0,1,74,108.61Z" fill="#fff"/><path d="M82.12,107.64a.75.75,0,0,1-.18-1.47,33.23,33.23,0,0,0,19.19-13,.76.76,0,0,1,1.05-.17.75.75,0,0,1,.17,1,34.7,34.7,0,0,1-20,13.59A.55.55,0,0,1,82.12,107.64Z" fill="#fff"/><path d="M119.58,78.08h-.06a.74.74,0,0,1-.69-.8A44.49,44.49,0,0,0,116.45,59a.74.74,0,0,1,.46-.95.75.75,0,0,1,1,.46,45.82,45.82,0,0,1,2.45,18.84A.74.74,0,0,1,119.58,78.08Z" fill="#fff"/><path d="M114.34,53.14a.77.77,0,0,1-.66-.4,45.6,45.6,0,0,0-4.06-6.29.75.75,0,1,1,1.18-.92A45.91,45.91,0,0,1,115,52a.75.75,0,0,1-.3,1A.8.8,0,0,1,114.34,53.14Z" fill="#fff"/><path d="M56.92,64.11a4.65,4.65,0,1,1,4.64-4.65A4.66,4.66,0,0,1,56.92,64.11Zm0-8.29a3.65,3.65,0,1,0,3.64,3.64A3.65,3.65,0,0,0,56.92,55.82Z" fill="#fff"/><path d="M108.58,70A34.75,34.75,0,1,0,52.49,101.1a4.13,4.13,0,0,0-.3,1.53,4.29,4.29,0,1,0,1.09-2.82A32.94,32.94,0,0,1,41,77.59a33.25,33.25,0,0,1,66.08-7.47A32.89,32.89,0,0,1,105.72,84a.75.75,0,0,0,1.43.46A34.52,34.52,0,0,0,108.58,70Z" fill="#fff"/><path d="M103,35.32c1.8-.33,2.79-.79,2.84-1.09,0-.13-.67-.71-3.08-1.13a5,5,0,0,1,.29,1.64A5.44,5.44,0,0,1,103,35.32Z" fill="none"/><path d="M89.86,34.23c0,.3,1,.76,2.85,1.09a5.42,5.42,0,0,1-.06-.58,5.28,5.28,0,0,1,.29-1.64C90.53,33.52,89.88,34.1,89.86,34.23Z" fill="none"/><path d="M94.06,36.52a4.17,4.17,0,0,0,7.57,0,33.49,33.49,0,0,1-3.78.22A33.65,33.65,0,0,1,94.06,36.52Z" fill="none"/><path d="M93.72,35.49a32.08,32.08,0,0,0,4.13.25,32,32,0,0,0,4.12-.25,4.65,4.65,0,0,0,.07-.75,4.2,4.2,0,0,0-8.39,0A4.65,4.65,0,0,0,93.72,35.49Z" fill="none"/><path d="M118.44,84.56a.75.75,0,0,0-.91.54,44.9,44.9,0,1,1-36.3-55.57,45.64,45.64,0,0,1,10.1,2.9c-1.37.37-2.47.94-2.47,1.8,0,1.12,1.88,1.78,4.08,2.14a5.16,5.16,0,0,0,9.82,0c2.19-.36,4.07-1,4.07-2.14,0-1.29-2.44-1.92-4.58-2.22a5.16,5.16,0,0,0-8.66-.2.56.56,0,0,0-.2-.14A46.42,46.42,0,1,0,119,85.47.75.75,0,0,0,118.44,84.56ZM105.83,34.23c0,.3-1,.76-2.84,1.09a5.44,5.44,0,0,0,.05-.58,5,5,0,0,0-.29-1.64C105.16,33.52,105.81,34.1,105.83,34.23Zm-13.18.51a5.42,5.42,0,0,0,.06.58c-1.8-.33-2.8-.79-2.85-1.09,0-.13.67-.71,3.08-1.13A5.28,5.28,0,0,0,92.65,34.74Zm5.2,4.2a4.18,4.18,0,0,1-3.79-2.42,33.65,33.65,0,0,0,3.79.22,33.49,33.49,0,0,0,3.78-.22A4.18,4.18,0,0,1,97.85,38.94Zm0-8.39A4.2,4.2,0,0,1,102,34.74a4.65,4.65,0,0,1-.07.75,32,32,0,0,1-4.12.25,32.08,32.08,0,0,1-4.13-.25,4.65,4.65,0,0,1-.07-.75A4.2,4.2,0,0,1,97.85,30.55Z" fill="#fff"/><path d="M74.21,81.61a8.12,8.12,0,1,1,8.12-8.12A8.13,8.13,0,0,1,74.21,81.61Z" fill="none"/><path d="M74.21,81.61a8.12,8.12,0,1,1,8.12-8.12A8.13,8.13,0,0,1,74.21,81.61Z" fill="none"/><path d="M74.21,67.11a6.38,6.38,0,1,0,6.37,6.38A6.38,6.38,0,0,0,74.21,67.11Z" fill="#fff"/></svg>