<svg xmlns="http://www.w3.org/2000/svg" width="147" height="147" viewBox="0 0 147 147"><title>Hubblesite-WhiteIcons-StarsAndNebulae-Final</title><circle cx="73.5" cy="73.5" r="56.17" fill="none" stroke="#fff" stroke-miterlimit="10"/><circle cx="73.5" cy="73.5" r="55.17" fill="none" stroke="#fff" stroke-miterlimit="10"/><path d="M73.5,147A73.5,73.5,0,1,1,147,73.5,73.58,73.58,0,0,1,73.5,147Zm0-145A71.51,71.51,0,1,0,145,73.5,71.59,71.59,0,0,0,73.5,2Z" fill="#fff"/><path d="M90.12,34.4H90a114.14,114.14,0,0,1-11.83-2.65l-10.86-3-1.25-.35a.74.74,0,0,1-.53-.91.75.75,0,0,1,.92-.54l1.27.35,10.85,3a113.82,113.82,0,0,0,11.68,2.61.75.75,0,0,1-.13,1.49Z" fill="#fff"/><path d="M96.49,43.3H96.4c-2.38-.27-4.8-.61-7.18-1a.75.75,0,0,1,.26-1.48c2.35.41,4.73.76,7.09,1a.75.75,0,0,1-.08,1.5Z" fill="#fff"/><path d="M64.57,36a.65.65,0,0,1-.19,0c-3.58-.9-7.25-1.63-10.9-2.18a.75.75,0,0,1,.22-1.49c3.71.56,7.42,1.3,11,2.21a.75.75,0,0,1,.54.92A.74.74,0,0,1,64.57,36Z" fill="#fff"/><path d="M96.06,50.25H96a118.21,118.21,0,0,1-17.8-3.51l-10.3-2.87a.75.75,0,0,1,.4-1.45l10.3,2.88a116.76,116.76,0,0,0,17.58,3.46.75.75,0,0,1-.09,1.49Z" fill="#fff"/><path d="M93.08,56.87H93c-2-.28-4-.62-6-1a.75.75,0,1,1,.29-1.47c1.94.38,3.92.72,5.88,1a.75.75,0,0,1-.11,1.49Z" fill="#fff"/><path d="M95.65,64.21h-.09c-3.62-.44-7.26-1.06-10.83-1.83a.75.75,0,0,1,.32-1.47c3.52.77,7.12,1.37,10.69,1.81a.75.75,0,0,1-.09,1.49Z" fill="#fff"/><path d="M66.25,57.41a.63.63,0,0,1-.19,0c-1.67-.44-3.38-.86-5.07-1.23a.75.75,0,0,1-.57-.89.74.74,0,0,1,.89-.57c1.72.37,3.44.79,5.14,1.24a.75.75,0,0,1-.2,1.48Z" fill="#fff"/><path d="M44.24,53.75h-.05c-3.54-.24-7.13-.32-10.68-.23a.78.78,0,0,1-.77-.73.75.75,0,0,1,.74-.77c3.59-.09,7.23,0,10.81.24a.74.74,0,0,1,.7.8A.75.75,0,0,1,44.24,53.75Z" fill="#fff"/><path d="M109.63,73.05a.75.75,0,0,1,0-1.5c1.8,0,3.62,0,5.41-.13a.75.75,0,0,1,.07,1.49c-1.81.09-3.65.13-5.48.14Z" fill="#fff"/><path d="M98.13,72.48h-.07a116.81,116.81,0,0,1-19.89-3.73l-10-2.8a.74.74,0,0,1-.52-.92.76.76,0,0,1,.93-.52l10,2.8A117,117,0,0,0,98.21,71a.75.75,0,0,1,.67.82A.76.76,0,0,1,98.13,72.48Z" fill="#fff"/><path d="M55.9,63.15h-.12c-3.1-.53-6.26-.94-9.39-1.22a.75.75,0,1,1,.13-1.49c3.18.28,6.38.69,9.51,1.23a.74.74,0,0,1,.61.86A.75.75,0,0,1,55.9,63.15Z" fill="#fff"/><path d="M109.57,80A116.33,116.33,0,0,1,96,79.25a.75.75,0,0,1-.66-.83.76.76,0,0,1,.83-.66,113.76,113.76,0,0,0,15.33.77h0a.75.75,0,0,1,0,1.5Z" fill="#fff"/><path d="M63.94,71.81a.55.55,0,0,1-.18,0c-2.15-.52-4.35-1-6.53-1.4a.75.75,0,0,1,.27-1.47c2.21.4,4.43.88,6.62,1.42a.75.75,0,0,1-.18,1.47Z" fill="#fff"/><path d="M42.48,68.65h0c-1.51-.08-3-.13-4.54-.15a.75.75,0,1,1,0-1.5c1.52,0,3.07.07,4.6.15a.75.75,0,0,1,0,1.5Z" fill="#fff"/><path d="M109.55,88.1c-1.54,0-3.08,0-4.61-.09a.75.75,0,0,1-.72-.78.76.76,0,0,1,.78-.72c2.6.1,5.24.11,7.83,0a.74.74,0,0,1,.78.73.76.76,0,0,1-.73.77C111.77,88.08,110.66,88.1,109.55,88.1Z" fill="#fff"/><path d="M72.7,82.25l-.2,0-5.19-1.44A114.24,114.24,0,0,0,46.39,77a.75.75,0,0,1-.68-.82.74.74,0,0,1,.81-.68,117.47,117.47,0,0,1,21.2,3.85l5.18,1.45a.74.74,0,0,1,.52.92A.75.75,0,0,1,72.7,82.25Z" fill="#fff"/><path d="M105,95h0a118,118,0,0,1-13.27-1.29.75.75,0,0,1-.63-.85.76.76,0,0,1,.86-.63A117.32,117.32,0,0,0,105,93.51a.75.75,0,0,1,0,1.5Z" fill="#fff"/><path d="M81.49,91.66a.57.57,0,0,1-.18,0c-1-.26-2.1-.53-3.14-.83L66.7,87.61a.76.76,0,0,1-.53-.92.74.74,0,0,1,.92-.53l.62.17,10.86,3c1,.29,2.07.56,3.1.82a.75.75,0,0,1-.18,1.48Z" fill="#fff"/><path d="M40.41,83.61h0c-1.65-.06-3.33-.09-5-.07h0a.75.75,0,0,1,0-1.5c1.67,0,3.37,0,5,.07a.74.74,0,0,1,.72.77A.75.75,0,0,1,40.41,83.61Z" fill="#fff"/><path d="M86.68,100.82h-.15c-2.8-.56-5.61-1.24-8.36-2a.75.75,0,1,1,.4-1.44c2.71.76,5.49,1.42,8.26,2a.75.75,0,0,1-.15,1.48Z" fill="#fff"/><path d="M69.2,96.27a.71.71,0,0,1-.2,0l-1.69-.47a115.49,115.49,0,0,0-21.74-3.87.76.76,0,0,1-.69-.81.78.78,0,0,1,.81-.69,117.77,117.77,0,0,1,22,3.92l1.68.47a.75.75,0,0,1,.52.93A.74.74,0,0,1,69.2,96.27Z" fill="#fff"/><path d="M95.65,109.26h-.09a118.44,118.44,0,0,1-16.4-3.18.75.75,0,1,1,.39-1.45,116.89,116.89,0,0,0,16.19,3.14.75.75,0,0,1-.09,1.49Z" fill="#fff"/><path d="M53.59,99.83h-.11A116.06,116.06,0,0,0,37.9,98.55a.76.76,0,0,1-.74-.76.75.75,0,0,1,.75-.74h0A115.92,115.92,0,0,1,53.7,98.34a.75.75,0,0,1-.11,1.49Z" fill="#fff"/><path d="M89.76,115.41h-.13c-1.12-.2-2.24-.41-3.36-.64a.75.75,0,1,1,.29-1.47q1.66.34,3.33.63a.75.75,0,0,1-.13,1.49Z" fill="#fff"/><path d="M77.63,112.63l-.2,0-6.55-1.83a.75.75,0,1,1,.4-1.45l6.55,1.83a.75.75,0,0,1,.52.92A.74.74,0,0,1,77.63,112.63Z" fill="#fff"/><path d="M54.44,107h-.12c-2-.32-4-.58-6-.79a.74.74,0,0,1-.66-.82.74.74,0,0,1,.82-.67c2,.21,4,.48,6.07.79a.76.76,0,0,1-.12,1.5Z" fill="#fff"/><path d="M73,118.35a.64.64,0,0,1-.2,0l-5.52-1.53a113.46,113.46,0,0,0-12-2.67.75.75,0,1,1,.25-1.48,117.05,117.05,0,0,1,12.15,2.7l5.51,1.54a.75.75,0,0,1-.2,1.47Z" fill="#fff"/><circle cx="40.41" cy="60.93" r="1.13" fill="#fff"/><circle cx="73.84" cy="96.55" r="1.13" fill="#fff"/><circle cx="41.4" cy="46.12" r="1.13" fill="#fff"/><circle cx="73.03" cy="37.45" r="3.4" fill="#fff"/><circle cx="61.67" cy="63.53" r="1.13" fill="#fff"/><path d="M56.44,43.25a3.39,3.39,0,1,1,4.8,0A3.39,3.39,0,0,1,56.44,43.25Zm3.6-3.6a1.7,1.7,0,1,0,0,2.4,1.7,1.7,0,0,0,0-2.4h0Z" fill="#fff"/><path d="M77.66,85.43a3.4,3.4,0,1,1,4.81,0A3.4,3.4,0,0,1,77.66,85.43Zm3.6-3.6a1.7,1.7,0,1,0,0,2.4,1.7,1.7,0,0,0,0-2.4h0Z" fill="#fff"/><path d="M47.07,71a3.4,3.4,0,1,1,4.81,0A3.4,3.4,0,0,1,47.07,71Zm3.6-3.6a1.7,1.7,0,1,0,0,2.4,1.8,1.8,0,0,0,0-2.41Z" fill="#fff"/><path d="M55.14,52.23H54V51.1a1.14,1.14,0,0,0-2.27,0h0v1.13H50.61a1.14,1.14,0,0,0-1.14,1.13h0a1.14,1.14,0,0,0,1.14,1.13h1.13v1.13a1.14,1.14,0,0,0,1.13,1.14h0A1.14,1.14,0,0,0,54,55.63h0V54.5h1.13a1.14,1.14,0,0,0,0-2.27Z" fill="#fff"/><path d="M98.74,85.29H97.61V84.16A1.14,1.14,0,0,0,96.48,83a1.12,1.12,0,0,0-1.13,1.13v1.13H94.21a1.14,1.14,0,0,0-1.13,1.13h0a1.14,1.14,0,0,0,1.13,1.13h1.13v1.13a1.14,1.14,0,0,0,1.14,1.14h0a1.14,1.14,0,0,0,1.13-1.14V87.56h1.13a1.14,1.14,0,1,0,0-2.27Z" fill="#fff"/><circle cx="83.26" cy="40.29" r="1.13" fill="#fff"/><circle cx="86.41" cy="91.56" r="1.13" fill="#fff"/><circle cx="102.12" cy="102.92" r="1.13" fill="#fff"/><circle cx="33.06" cy="67.37" r="1.13" fill="#fff"/><circle cx="61.67" cy="85.52" r="1.13" fill="#fff"/><circle cx="69.2" cy="50.62" r="1.13" fill="#fff"/><circle cx="103.25" cy="72.16" r="1.13" fill="#fff"/><circle cx="82.13" cy="113.02" r="1.13" fill="#fff"/><circle cx="74.97" cy="104.05" r="1.13" fill="#fff"/><circle cx="89.76" cy="77.45" r="1.13" fill="#fff"/><circle cx="109.16" cy="94.54" r="1.13" fill="#fff"/><path d="M62.8,98.92H61.67V97.79a1.14,1.14,0,0,0-1.13-1.14,1.13,1.13,0,0,0-1.13,1.14v1.13H58.27a1.14,1.14,0,0,0-1.13,1.13h0a1.14,1.14,0,0,0,1.13,1.14h1.14v1.13a1.12,1.12,0,0,0,1.13,1.13h0a1.13,1.13,0,0,0,1.13-1.13v-1.13h1.14a1.14,1.14,0,0,0,0-2.27Z" fill="#fff"/><path d="M76,55.46a3.4,3.4,0,1,1,4.81,0A3.42,3.42,0,0,1,76,55.46Zm3.6-3.6a1.7,1.7,0,1,0,0,2.4,1.7,1.7,0,0,0,0-2.4h0Z" fill="#fff"/><circle cx="96.79" cy="56.77" r="1.13" fill="#fff"/><path d="M105.54,49.22h-1.13V48.08a1.14,1.14,0,0,0-2.27,0h0v1.14H101a1.13,1.13,0,0,0-1.14,1.13h0A1.13,1.13,0,0,0,101,51.48h1.13v1.14a1.14,1.14,0,0,0,1.13,1.13h0a1.14,1.14,0,0,0,1.14-1.13h0V51.48h1.13a1.13,1.13,0,0,0,1.13-1.13,1.12,1.12,0,0,0-1.13-1.13Z" fill="#fff"/><path d="M52.46,82.81H51.32V81.68a1.13,1.13,0,1,0-2.26,0v1.13H47.93A1.14,1.14,0,0,0,46.79,84h0a1.14,1.14,0,0,0,1.13,1.13h1.14v1.13a1.13,1.13,0,0,0,1.13,1.14h0a1.13,1.13,0,0,0,1.13-1.13V85.08h1.14a1.14,1.14,0,0,0,0-2.27Z" fill="#fff"/><circle cx="69.63" cy="72.3" r="1.13" fill="#fff"/><circle cx="94.29" cy="101.09" r="3.4" fill="#fff"/><circle cx="40.19" cy="91.16" r="1.13" fill="#fff"/></svg>