<?xml version="1.0" encoding="utf-8"?>
<svg version="1.1" id="Layer_1" xmlns="http://www.w3.org/2000/svg" xmlns:xlink="http://www.w3.org/1999/xlink" x="0px" y="0px"
	 viewBox="0 0 25.8 30.1" style="enable-background:new 0 0 25.8 30.1;" xml:space="preserve">
<style type="text/css">
	.st0{fill:#556CF4;}
	.st1{fill:#FFFFFF;}
</style>
<circle class="st0" cx="12.9" cy="14.2" r="12.6"/>
<path id="twitter" class="st1" d="M18.7,9.9c-0.5,0.3-1,0.5-1.5,0.6C16.7,10,16,9.7,15.4,9.7c-1.4,0-2.5,1.2-2.4,2.5
	c0,0.2,0,0.4,0.1,0.6c-2-0.1-3.8-1.1-5-2.7c-0.2,0.4-0.3,0.8-0.3,1.3c0,0.8,0.4,1.6,1.1,2.1c-0.4,0-0.8-0.1-1.1-0.3v0
	c0,1.2,0.8,2.2,1.9,2.5c-0.2,0.1-0.4,0.1-0.6,0.1c-0.2,0-0.3,0-0.5,0c0.3,1,1.2,1.7,2.3,1.8c-1,0.8-2.3,1.2-3.6,1.1
	c1.1,0.7,2.4,1.1,3.7,1.1c4.5,0,6.9-3.9,6.9-7.2c0-0.1,0-0.2,0-0.3c0.5-0.4,0.9-0.8,1.2-1.3c-0.4,0.2-0.9,0.3-1.4,0.4
	C18.1,11,18.5,10.5,18.7,9.9z"/>
</svg>
